# xmcd
#
# Track frame offsets:
#       150
#       16185
#       32684
#       53814
#       70228
#       88868
#       104495
#       117692
#       132491
#       149761
#       167408
#       183517
#       199722
#       216234
#       232391
#       251560
#
# Disc length: 3621 seconds
#
# Revision: 2
# Processed by: cddbd v1.4PL0 Copyright (c) Steve Scherf et al.
# Submitted via: WaveLab 4.01
#
DISCID=f80e2310
DTITLE=Shania Twain - Come On Over
DYEAR=1999
DGENRE=Pop
TTITLE0=Your Still The One
TTITLE1=When
TTITLE2=From This Moment On
TTITLE3=Black Eyes, Blue Tears
TTITLE4=I Wont Leave You Lonely
TTITLE5=Holdin On To Love (To Save My Life)
TTITLE6=Come On Over
TTITLE7=Youve Got A Way
TTITLE8=Whatever You Do, Dont
TTITLE9=Man I Feel Like A Woman
TTITLE10=Love Gets Me Every Time
TTITLE11=Dont Be Stupid (You Know I Love You)
TTITLE12=That Dont Impress Me Much
TTITLE13=Honey I'm Home
TTITLE14=If You Wanna Touch Her Ask!
TTITLE15=Rock This Country
EXTD=
EXTT0=
EXTT1=
EXTT2=
EXTT3=
EXTT4=
EXTT5=
EXTT6=
EXTT7=
EXTT8=
EXTT9=
EXTT10=
EXTT11=
EXTT12=
EXTT13=
EXTT14=
EXTT15=
PLAYORDER=
